<svg id="Layer_1" data-name="Layer 1" xmlns="http://www.w3.org/2000/svg" xmlns:xlink="http://www.w3.org/1999/xlink" viewBox="0 0 656 370"><defs><style>.cls-1{fill:none;}.cls-2{clip-path:url(#clip-path);}.cls-3{clip-path:url(#clip-path-2);}.cls-4{fill:#d93a27;}.cls-5{clip-path:url(#clip-path-3);}.cls-6{fill:url(#linear-gradient);}.cls-7{clip-path:url(#clip-path-4);}.cls-8{fill:url(#linear-gradient-2);}.cls-9{clip-path:url(#clip-path-5);}.cls-10{fill:url(#linear-gradient-3);}.cls-11{clip-path:url(#clip-path-6);}.cls-12{fill:url(#linear-gradient-4);}.cls-13{clip-path:url(#clip-path-7);}.cls-14{fill:url(#linear-gradient-5);}.cls-15{clip-path:url(#clip-path-8);}.cls-16{fill:url(#linear-gradient-6);}.cls-17{clip-path:url(#clip-path-9);}.cls-18{fill:url(#linear-gradient-7);}.cls-19{clip-path:url(#clip-path-10);}.cls-20{fill:url(#linear-gradient-8);}.cls-21{fill:#f3cdb3;}.cls-22{fill:#9f2485;}</style><clipPath id="clip-path"><rect class="cls-1" x="200.76" y="78.24" width="254.48" height="213.52"/></clipPath><clipPath id="clip-path-2"><rect class="cls-1" x="200.76" y="78.24" width="254.48" height="213.52"/></clipPath><clipPath id="clip-path-3"><path class="cls-1" d="M443.62,149.79a1.49,1.49,0,0,0,.85,1.93l3.25,1.26a1.44,1.44,0,0,0,.54.1,1.5,1.5,0,0,0,.54-2.89l-3.25-1.26a1.44,1.44,0,0,0-.54-.1,1.48,1.48,0,0,0-1.39,1m-8.43-3.28a1.48,1.48,0,0,0,.85,1.93l3.24,1.26a1.49,1.49,0,0,0,.54.11,1.51,1.51,0,0,0,1.4-1,1.49,1.49,0,0,0-.86-1.93l-3.24-1.26a1.5,1.5,0,0,0-1.93.85m-8.44-3.27a1.49,1.49,0,0,0,.85,1.93l3.25,1.26a1.44,1.44,0,0,0,.54.1,1.5,1.5,0,0,0,.54-2.89l-3.25-1.26a1.44,1.44,0,0,0-.54-.1,1.48,1.48,0,0,0-1.39,1"/></clipPath><linearGradient id="linear-gradient" x1="-40.61" y1="-7.63" x2="-38.11" y2="-7.63" gradientTransform="matrix(0, -9.89, 8.8, 0, 505.36, -241.64)" gradientUnits="userSpaceOnUse"><stop offset="0" stop-color="#f6ab5a"/><stop offset="0.35" stop-color="#e75253"/><stop offset="0.7" stop-color="#c24379"/><stop offset="1" stop-color="#c24379"/></linearGradient><clipPath id="clip-path-4"><path class="cls-1" d="M410.91,101.19l-1.26,3.24a1.5,1.5,0,0,0,.86,1.94,1.44,1.44,0,0,0,.54.1,1.5,1.5,0,0,0,1.39-1l1.26-3.25a1.5,1.5,0,0,0-2.79-1.08m3.28-8.43L412.93,96a1.49,1.49,0,1,0,2.78,1.08L417,93.84a1.5,1.5,0,0,0-.85-1.94,1.49,1.49,0,0,0-1.93.86m3.27-8.44-1.26,3.24a1.51,1.51,0,0,0,.86,1.94,1.44,1.44,0,0,0,.54.1,1.49,1.49,0,0,0,1.39-.95l1.26-3.25a1.5,1.5,0,0,0-2.79-1.08"/></clipPath><linearGradient id="linear-gradient-2" x1="3.57" y1="-42.01" x2="6.07" y2="-42.01" gradientTransform="matrix(-9.89, 0, 0, -8.8, 462.59, -274.89)" xlink:href="#linear-gradient"/><clipPath id="clip-path-5"><path class="cls-1" d="M430,118.16l-3.18,1.4a1.5,1.5,0,0,0,.6,2.87,1.38,1.38,0,0,0,.6-.13l3.19-1.4a1.5,1.5,0,1,0-1.21-2.74m8.29-3.65-3.19,1.41a1.49,1.49,0,0,0,.6,2.86,1.46,1.46,0,0,0,.61-.13l3.18-1.4a1.49,1.49,0,0,0-.6-2.86,1.53,1.53,0,0,0-.6.12m8.28-3.64-3.19,1.4a1.49,1.49,0,0,0,.6,2.86,1.46,1.46,0,0,0,.61-.13l3.18-1.4a1.49,1.49,0,0,0-.6-2.86,1.41,1.41,0,0,0-.6.13"/></clipPath><linearGradient id="linear-gradient-3" x1="-24.84" y1="-35.1" x2="-22.34" y2="-35.1" gradientTransform="matrix(-9.89, 0, 0, -8.8, 203.91, -192.39)" xlink:href="#linear-gradient"/><clipPath id="clip-path-6"><path class="cls-1" d="M386.2,101.15a1.51,1.51,0,0,0-.77,2l1.4,3.18a1.5,1.5,0,0,0,1.37.89,1.41,1.41,0,0,0,.6-.13,1.48,1.48,0,0,0,.77-2l-1.4-3.19a1.5,1.5,0,0,0-1.37-.89,1.57,1.57,0,0,0-.6.12m-3.65-8.28a1.51,1.51,0,0,0-.77,2L383.19,98a1.48,1.48,0,0,0,1.36.89,1.46,1.46,0,0,0,.61-.13,1.48,1.48,0,0,0,.76-2l-1.4-3.19a1.5,1.5,0,0,0-1.37-.89,1.57,1.57,0,0,0-.6.12m-3.65-8.28a1.49,1.49,0,0,0-.76,2l1.4,3.18a1.48,1.48,0,0,0,1.37.89,1.44,1.44,0,0,0,.6-.13,1.49,1.49,0,0,0,.76-2l-1.4-3.18a1.49,1.49,0,0,0-1.37-.89,1.61,1.61,0,0,0-.6.12"/></clipPath><linearGradient id="linear-gradient-4" x1="28.03" y1="-24.31" x2="30.53" y2="-24.31" gradientTransform="matrix(0, 9.89, -8.8, 0, 169.85, -193.77)" xlink:href="#linear-gradient"/><clipPath id="clip-path-7"><path class="cls-1" d="M433.38,130.8l-3.48.07a1.5,1.5,0,0,0,0,3h0l3.47-.08a1.5,1.5,0,0,0,1.47-1.52,1.52,1.52,0,0,0-1.5-1.46h0m9-.21-3.47.08a1.5,1.5,0,0,0,0,3h0l3.48-.08a1.5,1.5,0,0,0,0-3h0m9.05-.2-3.48.08a1.5,1.5,0,0,0,0,3h0l3.48-.08a1.5,1.5,0,0,0,1.46-1.53,1.51,1.51,0,0,0-1.48-1.46h0"/></clipPath><linearGradient id="linear-gradient-5" x1="-35.15" y1="-23.13" x2="-32.65" y2="-23.13" gradientTransform="matrix(-9.89, 0, 0, -8.8, 105.39, -71.5)" xlink:href="#linear-gradient"/><clipPath id="clip-path-8"><path class="cls-1" d="M375,109a1.49,1.49,0,0,0,.05,2.11l2.51,2.4a1.5,1.5,0,0,0,2.12,0,1.51,1.51,0,0,0,0-2.12l-2.52-2.4A1.5,1.5,0,0,0,375,109m-6.54-6.26a1.5,1.5,0,0,0,.05,2.12l2.51,2.4a1.5,1.5,0,1,0,2.07-2.16l-2.52-2.4a1.48,1.48,0,0,0-1-.42,1.53,1.53,0,0,0-1.08.46M362,96.5a1.49,1.49,0,0,0,.05,2.11l2.51,2.41a1.5,1.5,0,1,0,2.07-2.16l-2.52-2.41a1.51,1.51,0,0,0-1-.41,1.48,1.48,0,0,0-1.08.46"/></clipPath><linearGradient id="linear-gradient-6" x1="33.93" y1="-9.02" x2="36.43" y2="-9.02" gradientTransform="matrix(0, 9.89, -8.8, 0, 291.42, -242.99)" xlink:href="#linear-gradient"/><clipPath id="clip-path-9"><path class="cls-1" d="M399.53,98.21a1.5,1.5,0,0,0-1.46,1.53l.07,3.48a1.5,1.5,0,0,0,1.5,1.46h0a1.49,1.49,0,0,0,1.46-1.53l-.07-3.48a1.5,1.5,0,0,0-1.5-1.46h0m-.2-9a1.49,1.49,0,0,0-1.46,1.53l.07,3.47a1.5,1.5,0,0,0,1.5,1.47h0a1.5,1.5,0,0,0,1.46-1.53l-.08-3.48a1.48,1.48,0,0,0-1.49-1.46h0m-.21-9a1.5,1.5,0,0,0-1.46,1.53l.08,3.48a1.49,1.49,0,0,0,1.49,1.46h0a1.5,1.5,0,0,0,1.46-1.53l-.08-3.48a1.49,1.49,0,0,0-1.49-1.46h0"/></clipPath><linearGradient id="linear-gradient-7" x1="17.37" y1="-35.9" x2="19.87" y2="-35.9" gradientTransform="matrix(0, 9.89, -8.8, 0, 83.38, -91.79)" xlink:href="#linear-gradient"/><clipPath id="clip-path-10"><path class="cls-1" d="M422,107.81l-2.41,2.51a1.5,1.5,0,0,0,2.16,2.07l2.41-2.52a1.5,1.5,0,0,0-1.08-2.53,1.53,1.53,0,0,0-1.08.47m6.25-6.54-2.4,2.51a1.51,1.51,0,0,0,0,2.12,1.54,1.54,0,0,0,1,.41,1.49,1.49,0,0,0,1.08-.46l2.4-2.52a1.49,1.49,0,0,0-2.16-2.06m6.26-6.54-2.41,2.51a1.49,1.49,0,0,0,1.08,2.53,1.48,1.48,0,0,0,1.08-.46l2.41-2.52a1.49,1.49,0,0,0-.05-2.11,1.5,1.5,0,0,0-2.11,0"/></clipPath><linearGradient id="linear-gradient-8" x1="-11.24" y1="-41.73" x2="-8.74" y2="-41.73" gradientTransform="matrix(-9.89, 0, 0, -8.8, 329.28, -263.73)" xlink:href="#linear-gradient"/></defs><g class="cls-2"><g class="cls-3"><path class="cls-4" d="M319.81,278.58a11.95,11.95,0,1,1,11.92-11.95,11.95,11.95,0,0,1-11.92,11.95m0-21.24a9.3,9.3,0,1,0,9.28,9.29,9.29,9.29,0,0,0-9.28-9.29"/></g><g class="cls-5"><rect class="cls-6" x="428.92" y="134.77" width="18.57" height="25.82" transform="translate(141.92 502.71) rotate(-68.78)"/></g><g class="cls-7"><rect class="cls-8" x="402.16" y="85.52" width="25.59" height="18.8" transform="matrix(0.36, -0.93, 0.93, 0.36, 176.27, 447.38)"/></g><g class="cls-9"><rect class="cls-10" x="424.34" y="106.57" width="25.89" height="20.03" transform="translate(-9.89 186.21) rotate(-23.78)"/></g><g class="cls-11"><rect class="cls-12" x="373.73" y="82.99" width="20.24" height="25.69" transform="matrix(0.92, -0.4, 0.4, 0.92, -6.05, 162.91)"/></g><g class="cls-13"><rect class="cls-14" x="428.39" y="130.12" width="24.67" height="4.02" transform="translate(-2.84 9.87) rotate(-1.28)"/></g><g class="cls-15"><rect class="cls-16" x="357.83" y="91.98" width="26" height="26.03" transform="translate(38.65 300.43) rotate(-46.28)"/></g><g class="cls-17"><rect class="cls-18" x="397.37" y="80.08" width="4.06" height="24.63" transform="translate(-1.96 8.94) rotate(-1.28)"/></g><g class="cls-19"><rect class="cls-20" x="415.12" y="90.55" width="26.02" height="26.01" transform="translate(57.39 341.4) rotate(-46.28)"/></g><g class="cls-3"><path class="cls-4" d="M406.32,120.65a4,4,0,0,0-5.29,1.16l-77.25,122a23,23,0,0,0-13,1.46,23.22,23.22,0,1,0,30.45,12.31,21.47,21.47,0,0,0-1.23-2.44l67.86-129.34a4,4,0,0,0-1.5-5.14m-2.81,2.83a1,1,0,0,1,1.65,1L337.27,254a2.55,2.55,0,0,0,.25,2.3,20.63,20.63,0,1,1-13.82-9.77,2.07,2.07,0,0,0,2.32-.64Z"/><path class="cls-21" d="M310.72,282.3c-8.23-8-9.72-15-6.41-21.71,6.95-14.1,18.34-9.76,21-9.63s3.93-2.89,3.93-2.89,66-108.07,67.54-110.69a7.71,7.71,0,0,0,.94-4.71L326,245.85a2.07,2.07,0,0,1-2.32.64,20.34,20.34,0,0,0-11.92,1.22,20.56,20.56,0,0,0,.36,38c.64.26,1.3.48,2,.68-.32-.78-1.29-2.05-3.38-4.09"/><path class="cls-22" d="M383.79,150.81l1.6-2.53A138.54,138.54,0,0,0,220.76,172l-.25.25a8.6,8.6,0,0,1-12.13-.25,8.57,8.57,0,0,1,.27-12.15,156.11,156.11,0,0,1,185.91-26l1.6-2.53a159.1,159.1,0,0,0-189.6,26.39,11.57,11.57,0,0,0,16,16.69l.31-.31a135.57,135.57,0,0,1,160.9-23.23"/><path class="cls-22" d="M431.42,156.23l-.31-.31a159,159,0,0,0-27.55-22l-1.4,2.66A156.89,156.89,0,0,1,429,158.05l.25.25a8.58,8.58,0,1,1-12.4,11.86,139.86,139.86,0,0,0-22.69-18.37l-1.39,2.65a136.93,136.93,0,0,1,21.94,17.81,11.59,11.59,0,0,0,16.36.34,11.58,11.58,0,0,0,.33-16.36"/><path class="cls-22" d="M367.58,219.45a70,70,0,0,0-6.07-5.39l-1.42,2.69a68.25,68.25,0,0,1,5.4,4.83l.25.25a8.58,8.58,0,1,1-12.4,11.86c-.46-.46-1-.87-1.44-1.31l-1.44,2.73c.25.23.51.44.74.67a11.57,11.57,0,1,0,16.69-16l-.31-.3"/><path class="cls-22" d="M399.35,187.68a114.36,114.36,0,0,0-16.75-13.83l-1.4,2.67a111.84,111.84,0,0,1,16.06,13.3l.24.24a8.58,8.58,0,1,1-12.4,11.87,94.77,94.77,0,0,0-11.93-10.1l-1.4,2.67A92.32,92.32,0,0,1,383,204a11.57,11.57,0,1,0,16.69-16l-.31-.31"/><path class="cls-22" d="M335.4,225.46l1.63-2.59a48.63,48.63,0,0,0-52.72,10.82,8.58,8.58,0,0,1-12.14-12.13,66.27,66.27,0,0,1,74.13-13.32l1.62-2.55a69.29,69.29,0,0,0-77.87,13.75,11.57,11.57,0,1,0,16.37,16.36,45.57,45.57,0,0,1,49-10.34"/><path class="cls-22" d="M359.67,187.13l1.61-2.54A93.6,93.6,0,0,0,252.52,202l-.25.25a8.58,8.58,0,1,1-11.86-12.4,111.23,111.23,0,0,1,130.07-19.74l1.61-2.54a114.25,114.25,0,0,0-133.77,20.14,11.57,11.57,0,0,0,16,16.69l.32-.31a90.59,90.59,0,0,1,105-16.91"/></g></g></svg>