<svg id="Layer_1" data-name="Layer 1" xmlns="http://www.w3.org/2000/svg" xmlns:xlink="http://www.w3.org/1999/xlink" viewBox="0 0 656 370"><defs><style>.cls-1{fill:none;}.cls-2{clip-path:url(#clip-path);}.cls-3{fill:#9f2485;}.cls-4{fill:#d93a27;}.cls-21,.cls-5{fill:#f3cdb3;}.cls-6{clip-path:url(#clip-path-3);}.cls-7{fill:url(#linear-gradient);}.cls-8{clip-path:url(#clip-path-4);}.cls-9{fill:url(#linear-gradient-2);}.cls-10{clip-path:url(#clip-path-5);}.cls-11{fill:url(#linear-gradient-3);}.cls-12{clip-path:url(#clip-path-6);}.cls-13{fill:url(#linear-gradient-4);}.cls-14{clip-path:url(#clip-path-7);}.cls-15{fill:url(#linear-gradient-5);}.cls-16{clip-path:url(#clip-path-8);}.cls-17{fill:url(#linear-gradient-6);}.cls-18{clip-path:url(#clip-path-9);}.cls-19{fill:url(#linear-gradient-7);}.cls-20{fill:#f3bdd6;}.cls-21{fill-rule:evenodd;}</style><clipPath id="clip-path"><rect class="cls-1" x="222.03" y="55.16" width="211.94" height="259.68"/></clipPath><clipPath id="clip-path-3"><path class="cls-1" d="M398.88,232l-2.2.5A1.25,1.25,0,0,0,397,235l.27,0,2.2-.5a1.25,1.25,0,0,0-.27-2.46,1.33,1.33,0,0,0-.28,0m7.85-1.78-3,.69a1.24,1.24,0,0,0,.28,2.45l.27,0,3-.68a1.25,1.25,0,0,0,.94-1.49,1.24,1.24,0,0,0-1.21-1,1.33,1.33,0,0,0-.28,0m7.85-1.79-3,.69a1.25,1.25,0,0,0,.28,2.46l.27,0,3-.69a1.25,1.25,0,0,0-.27-2.46l-.28,0"/></clipPath><linearGradient id="linear-gradient" x1="-2987.73" y1="-103.13" x2="-2985.67" y2="-103.13" gradientTransform="matrix(-10.19, 0, 0, -9.06, -30021.47, -703.19)" gradientUnits="userSpaceOnUse"><stop offset="0" stop-color="#f6ab5a"/><stop offset="0.35" stop-color="#e75253"/><stop offset="0.7" stop-color="#c24379"/><stop offset="1" stop-color="#c24379"/></linearGradient><clipPath id="clip-path-4"><path class="cls-1" d="M405.87,257.43a1.25,1.25,0,0,0,.39,1.72l2.62,1.65a1.23,1.23,0,0,0,.66.19,1.24,1.24,0,0,0,.66-2.3L407.59,257a1.26,1.26,0,0,0-.67-.19,1.24,1.24,0,0,0-1.05.58m-6.82-4.29a1.25,1.25,0,0,0,.4,1.72l2.62,1.65a1.21,1.21,0,0,0,.66.19,1.25,1.25,0,0,0,.66-2.3l-2.62-1.65a1.23,1.23,0,0,0-.66-.19,1.26,1.26,0,0,0-1.06.58M393,249.3a1.25,1.25,0,0,0,.4,1.72l1.9,1.2a1.25,1.25,0,1,0,1.33-2.11l-1.91-1.2a1.21,1.21,0,0,0-.66-.19,1.27,1.27,0,0,0-1.06.58"/></clipPath><linearGradient id="linear-gradient-2" x1="-2970.12" y1="150.9" x2="-2968.06" y2="150.9" gradientTransform="matrix(0, -10.19, 9.06, 0, -966.09, -29993.03)" xlink:href="#linear-gradient"/><clipPath id="clip-path-5"><path class="cls-1" d="M387.42,217.77l-1.2,1.9a1.25,1.25,0,0,0,2.11,1.33l1.2-1.91a1.24,1.24,0,0,0-.4-1.71,1.21,1.21,0,0,0-.66-.19,1.22,1.22,0,0,0-1.05.58m4.29-6.82-1.65,2.62a1.24,1.24,0,0,0,.39,1.72,1.23,1.23,0,0,0,.66.19,1.25,1.25,0,0,0,1.06-.58l1.64-2.62a1.25,1.25,0,0,0-.38-1.72,1.25,1.25,0,0,0-1.72.39m4.29-6.81-1.65,2.62a1.25,1.25,0,0,0,.39,1.72,1.24,1.24,0,0,0,1.71-.39l1.65-2.63a1.23,1.23,0,0,0-.39-1.71,1.21,1.21,0,0,0-.66-.19,1.26,1.26,0,0,0-1.05.58"/></clipPath><linearGradient id="linear-gradient-3" x1="-2840.35" y1="-296.75" x2="-2838.29" y2="-296.75" gradientTransform="matrix(-10.19, 0, 0, -9.06, -28533.19, -2477.4)" xlink:href="#linear-gradient"/><clipPath id="clip-path-6"><path class="cls-1" d="M396.28,267.54a1.23,1.23,0,0,0-.3,1.73l1.79,2.53a1.23,1.23,0,0,0,1,.52,1.27,1.27,0,0,0,.72-.22,1.25,1.25,0,0,0,.3-1.74L398,267.84a1.23,1.23,0,0,0-1-.53,1.16,1.16,0,0,0-.71.23M391.62,261a1.24,1.24,0,0,0-.29,1.73l1.78,2.53a1.27,1.27,0,0,0,1,.53,1.22,1.22,0,0,0,.72-.24,1.25,1.25,0,0,0,.3-1.73l-1.79-2.53a1.26,1.26,0,0,0-1-.52,1.21,1.21,0,0,0-.72.23m-4.16-5.88a1.24,1.24,0,0,0-.3,1.73l1.3,1.84a1.25,1.25,0,0,0,1,.52,1.21,1.21,0,0,0,.72-.23,1.24,1.24,0,0,0,.29-1.73l-1.3-1.84a1.25,1.25,0,0,0-1-.52,1.2,1.2,0,0,0-.71.23"/></clipPath><linearGradient id="linear-gradient-4" x1="-2898.65" y1="252.97" x2="-2896.59" y2="252.97" gradientTransform="matrix(0, -10.19, 9.06, 0, -1899.61, -29255.43)" xlink:href="#linear-gradient"/><clipPath id="clip-path-7"><path class="cls-1" d="M378.51,214.9l-.38,2.22a1.24,1.24,0,0,0,1,1.43l.21,0a1.25,1.25,0,0,0,1.23-1l.38-2.22a1.25,1.25,0,0,0-1-1.44l-.21,0a1.25,1.25,0,0,0-1.23,1m1.36-7.94-.52,3a1.25,1.25,0,0,0,1,1.44h.21a1.23,1.23,0,0,0,1.22-1l.52-3.05a1.25,1.25,0,0,0-1-1.44h-.2a1.24,1.24,0,0,0-1.23,1m1.36-7.94-.53,3.06a1.24,1.24,0,0,0,1,1.43l.21,0a1.23,1.23,0,0,0,1.22-1l.53-3.05a1.24,1.24,0,0,0-1-1.43.75.75,0,0,0-.21,0,1.23,1.23,0,0,0-1.22,1"/></clipPath><linearGradient id="linear-gradient-5" x1="-2729.08" y1="-331.91" x2="-2727.02" y2="-331.91" gradientTransform="matrix(-10.19, 0, 0, -9.06, -27410.93, -2800.32)" xlink:href="#linear-gradient"/><clipPath id="clip-path-8"><path class="cls-1" d="M394.52,223.85l-1.83,1.3a1.24,1.24,0,0,0,.72,2.26,1.27,1.27,0,0,0,.72-.22l1.83-1.31a1.24,1.24,0,0,0,.3-1.73,1.26,1.26,0,0,0-1-.53,1.28,1.28,0,0,0-.72.23m6.58-4.65L398.57,221a1.24,1.24,0,0,0,.72,2.26A1.28,1.28,0,0,0,400,223l2.52-1.79a1.24,1.24,0,0,0-.71-2.26,1.21,1.21,0,0,0-.72.23m6.57-4.66-2.53,1.8a1.24,1.24,0,0,0,.72,2.25,1.27,1.27,0,0,0,.72-.22l2.53-1.79a1.25,1.25,0,0,0-.73-2.26,1.26,1.26,0,0,0-.71.22"/></clipPath><linearGradient id="linear-gradient-6" x1="-2931.18" y1="-216.43" x2="-2929.12" y2="-216.43" gradientTransform="matrix(-10.19, 0, 0, -9.06, -29448.81, -1740.95)" xlink:href="#linear-gradient"/><clipPath id="clip-path-9"><path class="cls-1" d="M410.83,244.42a1.24,1.24,0,0,0,1,1.43l3,.52a.78.78,0,0,0,.22,0,1.24,1.24,0,0,0,.2-2.47l-3.05-.52-.21,0a1.25,1.25,0,0,0-1.23,1m-7.93-1.36a1.25,1.25,0,0,0,1,1.44L407,245l.21,0a1.25,1.25,0,0,0,.2-2.48l-3.05-.52-.21,0a1.24,1.24,0,0,0-1.22,1m-7.11-1.21a1.24,1.24,0,0,0,1,1.43l2.22.38.21,0a1.24,1.24,0,0,0,.21-2.47l-2.22-.38-.21,0a1.25,1.25,0,0,0-1.23,1"/></clipPath><linearGradient id="linear-gradient-7" x1="-3001.42" y1="25.86" x2="-2999.36" y2="25.86" gradientTransform="matrix(0, -10.19, 9.06, 0, 171.7, -30321.97)" xlink:href="#linear-gradient"/></defs><g class="cls-2"><g class="cls-2"><path class="cls-3" d="M235.22,117.68H235a10.21,10.21,0,0,1-6.86-17.57,141.38,141.38,0,0,1,199.72,0c.08.08.18.17.28.28a10.2,10.2,0,0,1-.3,14.43,10.21,10.21,0,0,1-14.43-.29,120.7,120.7,0,0,0-170.86,0,3.5,3.5,0,0,1-.27.28,10.16,10.16,0,0,1-7.07,2.85M328,61.3a137.81,137.81,0,0,0-98.11,40.58A7.72,7.72,0,1,0,240.56,113a2.39,2.39,0,0,0,.23-.22,123.16,123.16,0,0,1,174.4,0,7.74,7.74,0,0,0,10.94.23,7.72,7.72,0,0,0,.22-10.91l-.22-.22A137.82,137.82,0,0,0,328,61.3"/><path class="cls-3" d="M364.25,174.21a10.16,10.16,0,0,1-7.37-3.14,40.75,40.75,0,0,0-57.78,0,10.21,10.21,0,1,1-14.44-14.43,61.42,61.42,0,0,1,86.68,0,3.43,3.43,0,0,1,.27.27,10.2,10.2,0,0,1-7.36,17.28M328,156.58a43.12,43.12,0,0,1,30.66,12.75,7.72,7.72,0,1,0,11.15-10.68c-.07-.07-.14-.15-.22-.22a58.94,58.94,0,0,0-83.17,0,7.72,7.72,0,1,0,10.92,10.92A43.14,43.14,0,0,1,328,156.58m-64.51-10.64h-.21a10.21,10.21,0,0,1-6.86-17.57,101.37,101.37,0,0,1,143.18,0l.28.27a10.22,10.22,0,0,1-.3,14.44,10.21,10.21,0,0,1-14.43-.29,80.72,80.72,0,0,0-114.32,0l-.27.28a10.15,10.15,0,0,1-7.07,2.84M328,116.6a82.86,82.86,0,0,1,58.93,24.46,7.72,7.72,0,0,0,10.93.24,7.72,7.72,0,0,0,.22-10.91l-.22-.22a98.89,98.89,0,0,0-139.7,0,7.72,7.72,0,1,0,10.67,11.15l.23-.22A82.84,82.84,0,0,1,328,116.6"/><path class="cls-4" d="M328.76,294.76a6.87,6.87,0,0,1-6.86-6.87V277a10.83,10.83,0,1,1,13.73,0v10.87a6.88,6.88,0,0,1-6.87,6.87m0-34.43a8.33,8.33,0,0,0-4.89,15.08,1.23,1.23,0,0,1,.51,1v11.48a4.38,4.38,0,0,0,8.76,0V276.41a1.23,1.23,0,0,1,.51-1,8.33,8.33,0,0,0-4.89-15.08"/><path class="cls-5" d="M327.74,285.88V274s-3.7-.36-4.69-5.57c-.66-3.5,1.69-6.31,3.3-7.77a8.33,8.33,0,0,0-2.48,14.72,1.24,1.24,0,0,1,.51,1v11.48a4.37,4.37,0,0,0,7.84,2.66c-5,.34-4.48-4.67-4.48-4.67"/></g><g class="cls-6"><rect class="cls-7" x="395.12" y="226.2" width="21.57" height="10.97" transform="translate(-41.26 95.74) rotate(-12.81)"/></g><g class="cls-8"><rect class="cls-9" x="391.69" y="243.82" width="20.17" height="22.08" transform="translate(-27.95 459.08) rotate(-57.81)"/></g><g class="cls-10"><rect class="cls-11" x="381.18" y="202.43" width="21.97" height="20.28" transform="translate(3.34 431.19) rotate(-57.81)"/></g><g class="cls-12"><rect class="cls-13" x="382.95" y="252.58" width="21.06" height="22.02" transform="translate(-79.97 275.9) rotate(-35.31)"/></g><g class="cls-14"><rect class="cls-15" x="370.27" y="203.7" width="21.26" height="9.16" transform="translate(111.47 548.68) rotate(-80.31)"/></g><g class="cls-16"><rect class="cls-17" x="389.85" y="210.38" width="22.1" height="20.98" transform="translate(-53.91 272.33) rotate(-35.31)"/></g><g class="cls-18"><rect class="cls-19" x="401.57" y="232.89" width="9" height="21.42" transform="translate(97.58 602.85) rotate(-80.31)"/></g><g class="cls-2"><path class="cls-4" d="M380.48,242.64h0v-3.47a4.06,4.06,0,0,0-4.06-4.06H353.9a4.06,4.06,0,0,0-4.06,4.06v2.24H308v-2.24a4.06,4.06,0,0,0-4.06-4.06H281.44a4.06,4.06,0,0,0-4.06,4.06V310a1.25,1.25,0,0,0,1.25,1.24H379.24a1.25,1.25,0,0,0,1.25-1.24v-67.3h0m-28.16-3.47a1.58,1.58,0,0,1,1.58-1.58h22.53a1.58,1.58,0,0,1,1.57,1.58v2.24H352.32Zm-70.88-1.58H304a1.57,1.57,0,0,1,1.57,1.58v2.24H279.87v-2.24a1.57,1.57,0,0,1,1.57-1.58M378,308.7H279.87V243.89H378Z"/><path class="cls-3" d="M287.69,235.11v-9c0-24.95,18.5-45.26,41.24-45.26s41.25,20.31,41.25,45.26v9h2.49v-9c0-26.32-19.62-47.74-43.74-47.74s-43.73,21.42-43.73,47.74v9Z"/><path class="cls-3" d="M300.21,235.11v-9c0-18,12.89-32.73,28.73-32.73s28.72,14.68,28.72,32.73v9h2.48v-9c0-19.42-14-35.22-31.2-35.22s-31.22,15.8-31.22,35.22v9Z"/><path class="cls-20" d="M296.23,234.58h-.1a6.47,6.47,0,0,1-6.49-6.7c1.2-31.7,20.57-42.75,32.59-46.46-19.56,3.53-34.54,22.2-34.54,44.65v9h9.62a1.37,1.37,0,0,0-1.08-.53"/><path class="cls-20" d="M360.14,226.07v9h8.08a2.47,2.47,0,0,0-1.86-.84,3.9,3.9,0,0,1-3.9-3.72,71,71,0,0,0-2.63-18c-2.89-10.81-11.13-16.14-18.38-18.77,11,5.45,18.69,17.86,18.69,32.25"/><path class="cls-21" d="M329.8,304c-6.86-2.26-27-12-34.79-29.54s-6.25-23.46-10.28-24.6c-.3-.08-.59-.16-.87-.22a3.85,3.85,0,0,0-4,1.46V308.7H336.1q-.64-2.85-6.3-4.73"/></g></g></svg>