<svg id="Layer_1" data-name="Layer 1" xmlns="http://www.w3.org/2000/svg" xmlns:xlink="http://www.w3.org/1999/xlink" viewBox="0 0 656 370"><defs><style>.cls-1{fill:none;}.cls-2{clip-path:url(#clip-path);}.cls-3{clip-path:url(#clip-path-2);}.cls-4,.cls-5{fill:#f3cdb3;}.cls-5{fill-rule:evenodd;}.cls-6{clip-path:url(#clip-path-3);}.cls-7{fill:url(#linear-gradient);}.cls-8{clip-path:url(#clip-path-4);}.cls-9{fill:url(#linear-gradient-2);}.cls-10{clip-path:url(#clip-path-5);}.cls-11{fill:url(#linear-gradient-3);}.cls-12{clip-path:url(#clip-path-6);}.cls-13{fill:url(#linear-gradient-4);}.cls-14{clip-path:url(#clip-path-7);}.cls-15{fill:url(#linear-gradient-5);}.cls-16{clip-path:url(#clip-path-8);}.cls-17{fill:url(#linear-gradient-6);}.cls-18{fill:#d93a27;}.cls-19{fill:#9f2485;}</style><clipPath id="clip-path"><rect class="cls-1" x="200.24" y="80.7" width="255.52" height="208.6"/></clipPath><clipPath id="clip-path-2"><rect class="cls-1" x="200.24" y="80.7" width="255.52" height="208.6"/></clipPath><clipPath id="clip-path-3"><path class="cls-1" d="M273.66,224a1.5,1.5,0,0,0,1.46,1.54l3,.1h0a1.5,1.5,0,0,0,.05-3l-3.05-.1h-.11a1.48,1.48,0,0,0-1.44,1.46m-7.92-.25a1.51,1.51,0,0,0,1.45,1.55l3.05.09h.05a1.5,1.5,0,0,0,0-3l-3-.09h-.12a1.48,1.48,0,0,0-1.43,1.46m-7.92-.25a1.5,1.5,0,0,0,1.45,1.55l3.05.09h.05a1.51,1.51,0,0,0,.05-3l-3.05-.09h-.12a1.48,1.48,0,0,0-1.43,1.46"/></clipPath><linearGradient id="linear-gradient" x1="-3792.02" y1="17.46" x2="-3789.52" y2="17.46" gradientTransform="matrix(0, -8.82, -7.85, 0, 405.79, -33210.85)" gradientUnits="userSpaceOnUse"><stop offset="0" stop-color="#f6ab5a"/><stop offset="0.35" stop-color="#e75253"/><stop offset="0.7" stop-color="#c24379"/><stop offset="1" stop-color="#c24379"/></linearGradient><clipPath id="clip-path-4"><path class="cls-1" d="M260.9,208.91,258.05,210a1.5,1.5,0,0,0,.53,2.9,1.6,1.6,0,0,0,.53-.09l2.85-1.08a1.5,1.5,0,0,0-.53-2.91,1.39,1.39,0,0,0-.53.1m7.41-2.8-2.85,1.07a1.5,1.5,0,0,0,.53,2.91,1.39,1.39,0,0,0,.53-.1l2.86-1.07a1.5,1.5,0,0,0-.54-2.91,1.46,1.46,0,0,0-.53.1m7.42-2.81-2.85,1.08a1.5,1.5,0,0,0,.53,2.91,1.46,1.46,0,0,0,.53-.1l2.85-1.08a1.5,1.5,0,0,0-.53-2.9,1.6,1.6,0,0,0-.53.09"/></clipPath><linearGradient id="linear-gradient-2" x1="-3755.07" y1="191.85" x2="-3752.57" y2="191.85" gradientTransform="matrix(-8.82, 0, 0, 7.85, -32840.1, -1297.54)" xlink:href="#linear-gradient"/><clipPath id="clip-path-5"><path class="cls-1" d="M270.91,241.4a1.5,1.5,0,0,0,.75,2l2.78,1.25a1.36,1.36,0,0,0,.61.14,1.5,1.5,0,0,0,.62-2.87l-2.77-1.26a1.57,1.57,0,0,0-.62-.13,1.51,1.51,0,0,0-1.37.88m-7.23-3.26a1.51,1.51,0,0,0,.76,2l2.77,1.25a1.37,1.37,0,0,0,.62.14,1.51,1.51,0,0,0,.62-2.88l-2.78-1.25a1.5,1.5,0,0,0-.62-.13,1.52,1.52,0,0,0-1.37.88m-7.22-3.26a1.5,1.5,0,0,0,.75,2l2.78,1.25a1.37,1.37,0,0,0,.62.14,1.5,1.5,0,0,0,.62-2.87l-2.78-1.26a1.52,1.52,0,0,0-2,.75"/></clipPath><linearGradient id="linear-gradient-3" x1="-3766.94" y1="-159.59" x2="-3764.44" y2="-159.59" gradientTransform="matrix(0, -8.82, -7.85, 0, -986.01, -32974.53)" xlink:href="#linear-gradient"/><clipPath id="clip-path-6"><path class="cls-1" d="M377.54,222.57l-3.05.1a1.5,1.5,0,0,0,.05,3h0l3-.1a1.5,1.5,0,0,0,0-3h-.07m7.92-.24-3,.09a1.5,1.5,0,0,0,0,3h.05l3.05-.09a1.51,1.51,0,0,0,0-3h-.09m7.92-.25-3,.09a1.51,1.51,0,0,0,0,3h.05l3.05-.09a1.51,1.51,0,0,0,0-3h-.1"/></clipPath><linearGradient id="linear-gradient-4" x1="-2963.41" y1="46.51" x2="-2960.91" y2="46.51" gradientTransform="matrix(8.82, 0, 0, 7.85, 26509.76, -141.09)" xlink:href="#linear-gradient"/><clipPath id="clip-path-7"><path class="cls-1" d="M389.92,209.78a1.49,1.49,0,0,0,.87,1.94l2.85,1.08a1.69,1.69,0,0,0,.53.09,1.5,1.5,0,0,0,.53-2.9l-2.85-1.08a1.37,1.37,0,0,0-.52-.1,1.5,1.5,0,0,0-1.41,1M382.5,207a1.51,1.51,0,0,0,.88,1.94l2.85,1.07a1.39,1.39,0,0,0,.53.1,1.5,1.5,0,0,0,.53-2.91l-2.85-1.07a1.46,1.46,0,0,0-.53-.1,1.51,1.51,0,0,0-1.41,1m-7.41-2.8a1.5,1.5,0,0,0,.87,1.93l2.85,1.08a1.47,1.47,0,0,0,.54.1,1.5,1.5,0,0,0,.53-2.91L377,203.3a1.58,1.58,0,0,0-.52-.09,1.49,1.49,0,0,0-1.41,1"/></clipPath><linearGradient id="linear-gradient-5" x1="-2979.65" y1="-137.69" x2="-2977.15" y2="-137.69" gradientTransform="matrix(0, 8.82, -7.85, 0, -695.28, 26478.23)" xlink:href="#linear-gradient"/><clipPath id="clip-path-8"><path class="cls-1" d="M379.86,240.65l-2.78,1.26a1.5,1.5,0,0,0,.62,2.87,1.36,1.36,0,0,0,.61-.14l2.78-1.25a1.5,1.5,0,0,0-1.23-2.74m7.22-3.26-2.78,1.25a1.51,1.51,0,0,0,.62,2.88,1.37,1.37,0,0,0,.62-.14l2.78-1.25a1.5,1.5,0,0,0-1.24-2.74m7.23-3.26-2.78,1.26a1.5,1.5,0,0,0,.62,2.87,1.36,1.36,0,0,0,.61-.14l2.78-1.25a1.5,1.5,0,0,0-1.23-2.74"/></clipPath><linearGradient id="linear-gradient-6" x1="-3011.31" y1="223.6" x2="-3008.81" y2="223.6" gradientTransform="matrix(8.82, 0, 0, 7.85, 26935.45, -1515.45)" xlink:href="#linear-gradient"/></defs><g class="cls-2"><g class="cls-3"><path class="cls-4" d="M214.94,243h2v-1.78a3.94,3.94,0,0,0-1.94-1.06c-2.27-.5-4.21-13.87-5.91-25.59-.94-6.52-2-9.17-2.74-10.21a4.05,4.05,0,0,0-.33,1.57v31c0,3.3,4.1,6.08,8.94,6.08"/><path class="cls-5" d="M246.39,255.55c-.52-1.43-2-3.83-3.71-4.19-3.28-.71-7.28-.36-11-5.86s-7.78-54.89-9.71-55.25l-.41-.07a2.6,2.6,0,0,0-1.6.25v65.2h25.7a4.78,4.78,0,0,0,.76-.08"/></g><g class="cls-6"><rect class="cls-7" x="266.63" y="212.85" width="4.28" height="22.05" transform="translate(36.63 485.53) rotate(-88.21)"/></g><g class="cls-8"><rect class="cls-9" x="255.85" y="199.79" width="23.14" height="16.51" transform="translate(-56.3 108.04) rotate(-20.71)"/></g><g class="cls-10"><rect class="cls-11" x="257.29" y="227.76" width="18.32" height="23.25" transform="translate(-61.34 383.79) rotate(-65.71)"/></g><g class="cls-12"><rect class="cls-13" x="372.96" y="221.73" width="22.05" height="4.28" transform="translate(-6.79 12.08) rotate(-1.79)"/></g><g class="cls-14"><rect class="cls-15" x="377.08" y="196.48" width="16.51" height="23.14" transform="translate(54.44 494.89) rotate(-69.29)"/></g><g class="cls-16"><rect class="cls-17" x="374.68" y="230.23" width="23.25" height="18.32" transform="translate(-64.27 180.07) rotate(-24.29)"/></g><g class="cls-3"><path class="cls-5" d="M410.37,255.63h21.29c-.5-1.42-2-3.9-3.74-4.27-3.28-.71-7.28-.36-11-5.86s-7.78-54.89-9.71-55.25l-.41-.07a2.51,2.51,0,0,0-.91,0,4.8,4.8,0,0,0-.41,1.93v58.59a4.93,4.93,0,0,0,4.92,4.91"/><path class="cls-4" d="M449.2,239.37a15.28,15.28,0,0,0-3.19-1c-2.27-.5-1.64-12-3.34-23.76-1.35-9.28-2.83-10.72-3.59-10.84V243h2c3.57,0,6.72-1.52,8.14-3.63"/><path class="cls-18" d="M245.63,184.22H219.26c.56-6,2.22-11.55,4.56-18.8a77.6,77.6,0,0,1,12.65-24.08,10.07,10.07,0,0,1-1.34.1,10.44,10.44,0,0,1-2.29-.26A81.36,81.36,0,0,0,221,164.49a86.17,86.17,0,0,0-4,20.72,1.71,1.71,0,0,0-.09.51v1.52c-.1,2.43-.11,4.85,0,7.26v2.35h-2a15.13,15.13,0,0,0-2.63.23,88.75,88.75,0,0,1,4.08-33.78,85.09,85.09,0,0,1,12.25-24.16,9.79,9.79,0,0,1-1-.87,11.18,11.18,0,0,1-1.11-1.38,88,88,0,0,0-13,25.49,91.85,91.85,0,0,0-4.17,35.53c-3.78,1.52-6.36,4.55-6.36,8v31c0,5,5.36,9.08,11.94,9.08h2v11.13a1.5,1.5,0,0,0,1.5,1.5h27.21a7.92,7.92,0,0,0,7.92-7.91V192.13a7.92,7.92,0,0,0-7.92-7.91M216.92,243h-2c-4.84,0-8.94-2.79-8.94-6.08v-31c0-3.3,4.1-6.08,8.94-6.08h2Zm33.63,7.72a4.92,4.92,0,0,1-4.92,4.91h-25.7V187.22h25.7a4.92,4.92,0,0,1,4.92,4.91Z"/><path class="cls-4" d="M230.77,140.47a10.1,10.1,0,0,1-2.13-1.33,85.09,85.09,0,0,0-12.25,24.16,88.75,88.75,0,0,0-4.08,33.78,14.5,14.5,0,0,1,2.12-.21,87.71,87.71,0,0,1,4-33.43,77.9,77.9,0,0,1,12.32-23"/><path class="cls-4" d="M436.6,161.21a73.87,73.87,0,0,0-12.09-22.29,9.8,9.8,0,0,1-2,1.37A81,81,0,0,1,435,164.49,82.6,82.6,0,0,1,439,184.83c0,.15.11,1.56.11,1.73v.7q.15,3.59,0,7.15v2.44h2.28a99,99,0,0,0-4.76-35.65"/><path class="cls-19" d="M235.13,141.44A10.32,10.32,0,0,1,228,123.67a139.43,139.43,0,0,1,197,0l.27.28a10.32,10.32,0,1,1-14.89,14.3,118.53,118.53,0,0,0-167.77,0l-.27.28a10.29,10.29,0,0,1-7.15,2.87M326.44,86a135.31,135.31,0,0,0-96.36,39.86,7.33,7.33,0,0,0-.24,10.37,7.34,7.34,0,0,0,10.36.21l.21-.22a121.51,121.51,0,0,1,172,0,7.32,7.32,0,1,0,10.59-10.12l-.21-.21A135.39,135.39,0,0,0,326.44,86"/><path class="cls-19" d="M327.28,239.88a19.15,19.15,0,1,1,19.15-19.15,19.17,19.17,0,0,1-19.15,19.15m0-35.29a16.15,16.15,0,1,0,16.14,16.14,16.17,16.17,0,0,0-16.14-16.14m34.84-7.51a10.3,10.3,0,0,1-7.45-3.16,39.8,39.8,0,0,0-56.47,0,10.33,10.33,0,0,1-14.61-14.6,60.74,60.74,0,0,1,85.7,0,3.69,3.69,0,0,1,.28.28,10.31,10.31,0,0,1-7.45,17.46m-35.67-17.9a42.74,42.74,0,0,1,30.37,12.63,7.32,7.32,0,0,0,12.62-4.9,7.26,7.26,0,0,0-2-5.22l-.21-.21a57.75,57.75,0,0,0-81.48,0,7.32,7.32,0,1,0,10.36,10.35,42.74,42.74,0,0,1,30.38-12.63M263,169.27h-.22a10.33,10.33,0,0,1-6.94-17.77,100.09,100.09,0,0,1,141.32,0l.27.28a10.31,10.31,0,0,1-.3,14.6,10.34,10.34,0,0,1-14.6-.3,79.15,79.15,0,0,0-112.11,0,4,4,0,0,1-.29.29,10.26,10.26,0,0,1-7.13,2.87m63.49-29.44A81.79,81.79,0,0,1,384.64,164a7.32,7.32,0,1,0,10.58-10.12l-.2-.2a97.06,97.06,0,0,0-137.12,0A7.32,7.32,0,1,0,268,164.22a2.08,2.08,0,0,0,.21-.21,81.81,81.81,0,0,1,58.22-24.18"/><path class="cls-18" d="M446.64,197.91a91.85,91.85,0,0,0-4.17-35.53,87.22,87.22,0,0,0-14.93-27.94,10.28,10.28,0,0,1-1.53,2.89,84.37,84.37,0,0,1,13.6,26,88.94,88.94,0,0,1,4.07,33.78,15,15,0,0,0-2.62-.23h-2v-2.44c.11-2.38.1-4.76,0-7.15v-.7c0-.17-.06-1.58-.11-1.73A82.43,82.43,0,0,0,435,164.5a80.75,80.75,0,0,0-12.54-24.21,10.34,10.34,0,0,1-3,1,75.79,75.79,0,0,1,10,16.81c1,2.37,1.93,4.8,2.74,7.31a82.38,82.38,0,0,1,3.71,18.8H410.37a7.92,7.92,0,0,0-7.92,7.91v58.59a7.92,7.92,0,0,0,7.92,7.91h.93a25.24,25.24,0,0,1-24.23,18.29H371.4a8.63,8.63,0,1,0,0,3h15.67a28.24,28.24,0,0,0,27.33-21.29h23.18a1.5,1.5,0,0,0,1.5-1.5V246h2c6.58,0,11.94-4.07,11.94-9.08v-31c0-3.47-2.58-6.49-6.36-8M362.92,284a5.62,5.62,0,1,1,5.62-5.62,5.62,5.62,0,0,1-5.62,5.62m73.16-86v57.54H410.37a4.93,4.93,0,0,1-4.92-4.91V192.13a4.92,4.92,0,0,1,4.92-4.91h25.7v10.87ZM450,236.92c0,3.3-4.1,6.08-8.94,6.08h-2V199.85h2c4.84,0,8.94,2.79,8.94,6.08Z"/></g></g></svg>